<?xml version="1.0" standalone="no"?>
<!DOCTYPE svg PUBLIC "-//W3C//DTD SVG 20010904//EN"
 "http://www.w3.org/TR/2001/REC-SVG-20010904/DTD/svg10.dtd">
<svg version="1.0" xmlns="http://www.w3.org/2000/svg"
 width="512.000000pt" height="512.000000pt" viewBox="0 0 512.000000 512.000000"
 preserveAspectRatio="xMidYMid meet">

<g transform="translate(0.000000,512.000000) scale(0.100000,-0.100000)"
fill="#000000" stroke="none">
<path d="M400 4241 l0 -799 -109 -4 c-118 -3 -141 -12 -185 -72 -19 -25 -21
-42 -21 -166 0 -151 5 -167 69 -214 26 -20 43 -21 268 -24 l240 -3 -7 -22
c-16 -54 -17 -194 -1 -267 29 -137 127 -297 225 -367 22 -15 41 -31 41 -34 0
-4 -12 -10 -27 -14 -51 -12 -209 -92 -289 -145 -100 -67 -246 -212 -311 -310
-141 -211 -207 -416 -208 -650 0 -120 1 -128 32 -192 37 -80 96 -146 158 -179
l45 -24 0 -337 0 -338 1081 0 1080 0 -4 608 c-3 574 -5 612 -24 692 -57 233
-163 421 -327 586 -50 50 -127 115 -170 144 -80 53 -238 133 -288 145 -27 7
-27 8 50 84 137 135 196 269 197 446 0 55 -4 117 -8 137 l-8 38 1520 2 c1517
3 1520 3 1547 24 64 47 69 63 69 214 0 124 -2 141 -21 166 -44 60 -67 69 -185
72 l-109 4 0 799 0 799 -1040 0 -1040 0 0 -800 0 -800 -80 0 -80 0 0 800 0
800 -1040 0 -1040 0 0 -799z m640 479 l0 -160 400 0 400 0 0 160 0 160 240 0
240 0 0 -720 0 -720 -240 0 -240 0 0 160 0 160 -400 0 -400 0 0 -160 0 -160
-240 0 -240 0 0 720 0 720 240 0 240 0 0 -160z m640 80 l0 -80 -240 0 -240 0
0 80 0 80 240 0 240 0 0 -80z m1600 -80 l0 -160 400 0 400 0 0 160 0 160 240
0 240 0 0 -720 0 -720 -240 0 -240 0 0 160 0 160 -400 0 -400 0 0 -160 0 -160
-240 0 -240 0 0 720 0 720 240 0 240 0 0 -160z m640 80 l0 -80 -240 0 -240 0
0 80 0 80 240 0 240 0 0 -80z m-2240 -1280 l0 -80 -240 0 -240 0 0 80 0 80
240 0 240 0 0 -80z m2240 0 l0 -80 -240 0 -240 0 0 80 0 80 240 0 240 0 0 -80z
m-3120 -297 c-29 -31 -57 -67 -63 -80 l-10 -23 -244 0 -243 0 0 80 0 80 306 0
306 0 -52 -57z m571 47 c191 -36 348 -200 381 -397 52 -311 -234 -597 -544
-545 -261 44 -443 291 -400 545 18 105 60 187 135 261 118 119 268 166 428
136z m3509 -70 l0 -80 -1519 0 -1519 0 -27 38 c-16 20 -46 56 -69 80 l-40 42
1587 0 1587 0 0 -80z m-3345 -1074 c108 -28 231 -83 323 -143 75 -50 193 -162
254 -243 68 -88 142 -245 175 -365 l27 -100 4 -518 3 -517 -120 0 -121 0 0
578 0 577 -223 223 -222 222 -418 0 -417 0 0 -280 0 -280 -120 0 -120 0 0 -80
0 -79 364 -3 365 -3 30 -29 c58 -56 48 -143 -21 -186 -32 -20 -47 -20 -458
-18 -467 3 -453 2 -523 67 -59 54 -72 95 -70 216 2 140 34 272 102 410 59 120
122 206 222 300 155 147 348 240 565 275 100 16 286 4 399 -24z m-15 -646 l0
-200 200 0 200 0 0 -520 0 -520 -480 0 -480 0 0 240 0 240 158 0 c203 0 244
11 318 84 113 114 113 278 0 392 -74 73 -115 84 -318 84 l-158 0 0 200 0 200
280 0 280 0 0 -200z m225 20 l59 -60 -62 0 -62 0 0 60 c0 33 1 60 3 60 1 0 29
-27 62 -60z m-945 -1020 l0 -240 -160 0 -160 0 0 240 0 240 160 0 160 0 0
-240z"/>
<path d="M2640 1040 l0 -960 1200 0 1200 0 0 960 0 960 -1200 0 -1200 0 0
-960z m800 640 l0 -160 400 0 400 0 0 160 0 160 320 0 320 0 0 -800 0 -800
-1040 0 -1040 0 0 800 0 800 320 0 320 0 0 -160z m640 80 l0 -80 -240 0 -240
0 0 80 0 80 240 0 240 0 0 -80z"/>
<path d="M3920 800 l0 -80 400 0 400 0 0 80 0 80 -400 0 -400 0 0 -80z"/>
<path d="M3920 480 l0 -80 80 0 80 0 0 80 0 80 -80 0 -80 0 0 -80z"/>
<path d="M4240 480 l0 -80 80 0 80 0 0 80 0 80 -80 0 -80 0 0 -80z"/>
<path d="M4560 480 l0 -80 80 0 80 0 0 80 0 80 -80 0 -80 0 0 -80z"/>
</g>
</svg>
